<?xml version="1.0" standalone="no"?>
<!DOCTYPE svg PUBLIC "-//W3C//DTD SVG 20010904//EN"
 "http://www.w3.org/TR/2001/REC-SVG-20010904/DTD/svg10.dtd">
<svg version="1.0" xmlns="http://www.w3.org/2000/svg"
 width="275.000000pt" height="183.000000pt" viewBox="0 0 275.000000 183.000000"
 preserveAspectRatio="xMidYMid meet">

<g transform="translate(0.000000,183.000000) scale(0.100000,-0.100000)"
fill="#000000" stroke="none">
<path d="M0 1800 c0 -16 4 -30 8 -30 4 0 16 14 25 30 l18 30 -25 0 c-22 0 -26
-4 -26 -30z"/>
<path d="M2680 1790 c11 -22 25 -40 30 -40 5 0 10 -17 12 -37 2 -20 9 -38 16
-41 9 -3 12 17 12 77 l0 81 -45 0 -45 0 20 -40z"/>
<path d="M1227 1600 c-30 -65 -37 -100 -46 -240 -8 -113 -7 -136 5 -143 8 -4
14 -13 14 -18 0 -6 -5 -7 -11 -4 -6 4 -19 -2 -29 -12 -22 -25 -35 -63 -21 -63
6 0 11 5 11 10 0 6 5 10 11 10 6 0 9 -6 6 -14 -3 -8 -1 -17 6 -20 7 -4 -1 -4
-16 -1 -22 4 -27 3 -21 -7 17 -27 12 -66 -9 -72 -13 -3 -18 -10 -14 -20 4 -10
1 -16 -9 -16 -9 0 -14 -6 -11 -13 2 -7 -8 -28 -24 -46 -15 -19 -26 -38 -23
-43 3 -5 1 -15 -5 -22 -14 -17 -18 -80 -8 -126 l8 -35 -20 25 -19 24 -13 -27
c-7 -15 -18 -27 -25 -27 -7 0 -16 -5 -20 -11 -4 -8 0 -9 15 -4 25 8 25 6 6
-31 -8 -17 -11 -32 -5 -38 5 -5 -1 -19 -16 -35 -13 -14 -24 -31 -24 -38 0 -7
-11 -13 -24 -13 -13 0 -26 -6 -29 -12 -4 -10 -7 -10 -18 0 -12 11 -12 14 1 22
13 8 13 10 -2 10 -9 0 -19 -6 -21 -12 -3 -7 -6 -3 -6 10 -1 12 -5 22 -11 22
-18 0 -10 16 25 53 33 33 33 36 14 42 -24 8 -60 -14 -91 -55 -14 -20 -28 -28
-39 -25 -10 3 -19 -1 -23 -10 -3 -8 -15 -15 -26 -15 -11 0 -20 -5 -20 -10 0
-19 -69 -80 -89 -80 -13 0 -21 -8 -23 -22 -2 -13 -11 -24 -23 -26 -11 -3 -28
-13 -38 -23 -10 -11 -32 -22 -48 -26 -23 -4 -29 -11 -29 -32 0 -16 -9 -33 -25
-45 -14 -11 -25 -29 -25 -42 0 -15 -6 -24 -15 -24 -8 0 -15 -4 -15 -9 0 -5 -9
-13 -20 -16 -12 -4 -20 -15 -20 -28 0 -12 -9 -28 -20 -35 -12 -7 -20 -8 -20
-2 0 5 5 10 10 10 6 0 10 11 10 25 0 14 -5 25 -11 25 -5 0 -9 8 -8 17 4 47 0
53 -41 53 -33 0 -40 3 -40 20 0 17 -7 20 -40 20 -32 0 -40 4 -40 18 0 9 -9 23
-20 30 -11 7 -20 20 -20 30 0 19 -18 42 -32 42 -4 0 -8 -97 -8 -215 l0 -215
1375 0 1375 0 0 515 c0 451 -2 515 -15 515 -12 0 -15 -14 -15 -62 0 -35 -4
-57 -8 -51 -6 9 -17 5 -43 -17 -31 -27 -32 -29 -11 -30 27 0 29 -16 2 -32 -11
-7 -20 -21 -20 -30 0 -11 -8 -18 -19 -18 -17 0 -20 -8 -23 -51 -2 -37 -8 -55
-21 -63 -13 -8 -20 -8 -25 1 -6 9 -17 5 -43 -17 -18 -16 -42 -29 -51 -30 -15
0 -18 -9 -18 -48 0 -44 -12 -72 -32 -72 -4 0 -8 7 -8 16 0 12 -10 8 -40 -16
-22 -17 -39 -34 -39 -38 5 -34 -3 -42 -40 -42 -30 0 -40 -4 -44 -20 -3 -11 0
-20 5 -20 6 0 -10 -16 -35 -35 -36 -28 -56 -35 -94 -36 -29 -1 -37 -4 -20 -6
15 -2 27 -8 27 -12 0 -12 -22 -28 -44 -32 -10 -2 -23 -12 -27 -22 -5 -9 -13
-25 -17 -34 -11 -23 -32 -28 -32 -8 0 13 -8 10 -39 -14 -35 -28 -40 -29 -44
-14 -4 14 -5 13 -6 -4 -1 -16 -7 -23 -20 -23 -15 0 -20 9 -23 45 -2 29 1 44 7
41 11 -4 12 120 2 229 -5 57 9 95 53 142 17 18 30 35 30 38 0 3 11 30 24 58
33 74 42 162 21 222 -11 34 -13 50 -5 55 6 4 10 11 9 16 -1 5 7 29 19 54 12
25 22 51 22 58 0 7 12 36 26 64 29 57 40 140 30 213 l-7 47 -42 -7 c-51 -8
-125 -43 -191 -91 -57 -40 -91 -42 -120 -6 -18 22 -19 22 -38 5 -15 -14 -21
-15 -27 -4 -5 7 -20 14 -34 14 -14 1 -23 5 -20 10 2 4 -5 7 -16 7 -11 0 -23
-5 -27 -11 -4 -8 -9 -7 -15 2 -6 9 -12 10 -16 4 -10 -13 -50 -35 -63 -35 -18
0 -11 18 10 23 28 7 26 37 -2 38 -13 1 -31 2 -41 3 -12 1 -33 30 -63 86 -28
55 -61 100 -91 128 -26 23 -50 42 -53 42 -3 0 -13 -18 -23 -40z m18 -190 c-3
-5 -1 -10 4 -10 16 0 52 -38 42 -45 -5 -3 -17 -2 -27 2 -14 5 -16 3 -10 -13
16 -41 19 -74 6 -74 -6 0 -14 9 -17 20 -3 10 -14 22 -24 25 -11 4 -16 11 -13
17 4 6 6 28 6 50 -2 32 1 38 19 38 11 0 17 -4 14 -10z m190 -220 c4 -6 10 -8
15 -5 4 3 13 -2 20 -11 7 -8 20 -12 27 -9 9 3 26 -8 41 -24 21 -24 29 -28 44
-20 11 6 26 9 34 7 13 -2 12 -7 -5 -25 -12 -12 -21 -27 -21 -33 0 -15 -20 -12
-26 4 -3 8 -12 12 -20 9 -8 -3 -20 0 -28 6 -10 9 -21 9 -42 0 -16 -6 -23 -13
-16 -16 19 -7 14 -25 -5 -21 -23 3 -63 -31 -56 -48 3 -8 -2 -14 -11 -14 -10 0
-16 -8 -16 -21 0 -18 -2 -19 -15 -5 -8 8 -15 20 -15 26 0 7 -8 10 -20 7 -11
-3 -18 -1 -15 3 3 5 18 11 34 15 44 9 83 66 83 120 0 24 -3 49 -7 55 -3 5 -2
10 4 10 5 0 13 -5 16 -10z m-39 -35 c9 -12 10 -23 4 -36 -6 -10 -10 -27 -10
-38 0 -12 -6 -21 -14 -21 -8 0 -21 -3 -30 -6 -12 -5 -16 0 -17 17 0 13 -3 19
-6 12 -3 -9 -17 -4 -44 14 -71 47 -38 83 70 78 20 -1 39 -9 47 -20z m-136 -80
c0 -15 -5 -17 -50 -19 -14 -1 -25 -7 -25 -15 0 -8 -6 -15 -13 -17 -7 -1 -8 0
-3 2 6 3 8 11 5 19 -7 17 33 59 40 42 2 -7 5 -4 5 6 1 15 5 16 21 7 11 -6 20
-17 20 -25z m445 15 c4 -6 10 -8 15 -5 5 3 11 1 15 -5 3 -5 3 -10 -2 -10 -12
0 -36 -58 -30 -73 2 -7 -5 -21 -15 -32 -16 -16 -18 -17 -13 -2 8 19 -10 24
-19 5 -6 -17 -36 19 -36 44 0 16 3 17 23 7 19 -10 20 -10 11 2 -15 19 -9 50
12 66 21 16 31 16 39 3z m-148 -42 c-3 -8 -6 -5 -6 6 -1 11 2 17 5 13 3 -3 4
-12 1 -19z m193 -8 c0 -10 -8 -24 -17 -29 -16 -9 -16 -10 -1 -11 9 0 26 12 37
26 12 15 21 25 22 23 7 -37 6 -42 -13 -47 -13 -3 -16 -7 -8 -12 7 -4 1 -7 -14
-7 -36 0 -48 18 -33 50 14 32 27 35 27 7z m-380 0 c0 -5 -5 -10 -11 -10 -5 0
-7 5 -4 10 3 6 8 10 11 10 2 0 4 -4 4 -10z m-143 -6 c-3 -3 -12 -4 -19 -1 -8
3 -5 6 6 6 11 1 17 -2 13 -5z m703 -14 c0 -5 -5 -10 -11 -10 -5 0 -7 5 -4 10
3 6 8 10 11 10 2 0 4 -4 4 -10z m-644 -39 c0 -11 -4 -17 -8 -15 -4 3 -8 12 -8
20 0 8 4 14 8 14 4 0 8 -9 8 -19z m118 -20 c3 -5 -1 -14 -9 -21 -13 -10 -15
-9 -15 9 0 21 14 28 24 12z m163 -17 c2 -13 1 -15 -4 -4 -3 8 -11 19 -17 23
-7 6 -6 7 4 4 8 -2 16 -12 17 -23z m-322 0 c-16 -8 -33 -21 -38 -27 -6 -8 -7
-5 -3 6 3 10 6 23 6 28 0 5 15 9 33 9 l32 0 -30 -16z m183 -198 c12 2 22 -1
22 -7 0 -6 8 -3 17 7 20 20 32 1 13 -21 -30 -37 -120 -4 -120 44 l0 26 23 -26
c14 -17 30 -25 45 -23z m-711 -208 c-3 -8 -6 -5 -6 6 -1 11 2 17 5 13 3 -3 4
-12 1 -19z m133 -48 c0 -5 -4 -10 -10 -10 -5 0 -10 5 -10 10 0 6 5 10 10 10 6
0 10 -4 10 -10z m-151 -36 c-14 -18 -24 -11 -15 11 3 9 11 13 16 10 8 -5 7
-11 -1 -21z m17 -46 c-9 -12 -16 -17 -16 -10 0 18 24 54 28 42 2 -5 -4 -20
-12 -32z m158 10 c7 -5 5 -8 -6 -8 -21 0 -32 16 -22 32 6 9 9 8 12 -2 3 -8 10
-18 16 -22z m-231 -73 c-3 -9 -8 -14 -10 -11 -3 3 -2 9 2 15 9 16 15 13 8 -4z
m247 -26 c0 -5 -4 -9 -8 -9 -5 0 -9 7 -9 15 0 8 4 12 9 9 4 -3 8 -9 8 -15z
m-312 -118 c-26 -33 -38 -38 -38 -17 0 12 33 37 58 45 2 1 -7 -12 -20 -28z"/>
<path d="M1266 1151 c-8 -13 3 -38 20 -45 11 -4 12 -1 6 12 -5 9 -7 23 -5 30
5 14 -13 17 -21 3z"/>
<path d="M1343 1133 c-7 -3 -13 -12 -13 -21 0 -15 2 -15 17 1 18 18 16 27 -4
20z"/>
<path d="M1696 1077 c3 -8 1 -18 -5 -22 -6 -3 -11 -13 -11 -22 0 -13 3 -13 15
-3 17 14 20 46 5 55 -5 3 -7 0 -4 -8z"/>
<path d="M1088 1094 c-3 -3 -3 -14 -1 -25 5 -16 8 -18 14 -7 16 25 6 51 -13
32z"/>
<path d="M867 703 c-10 -3 -16 -10 -14 -16 6 -20 24 -18 30 3 3 11 4 19 4 19
-1 -1 -10 -3 -20 -6z"/>
<path d="M920 630 c0 -5 5 -10 10 -10 6 0 10 5 10 10 0 6 -4 10 -10 10 -5 0
-10 -4 -10 -10z"/>
</g>
</svg>
